<?xml version="1.0" encoding="UTF-8"?>
<svg id="Layer_1" xmlns="http://www.w3.org/2000/svg" version="1.1" viewBox="0 0 1000 1000">
  <!-- Generator: Adobe Illustrator 29.0.1, SVG Export Plug-In . SVG Version: 2.1.0 Build 192)  -->
  <path d="M96.44,482.21h57.4v74.82h-22.96l-2.1-14.92c-9.38,13.2-25.45,17.79-38.08,17.79-41.33,0-68.12-31.57-68.12-71.18s26.79-71.18,68.12-71.18c28.32,0,58.55,15.12,61.8,49.37h-35.59c-1.15-11.67-12.63-18.75-26.98-18.75-22.96,0-31.76,20.28-31.76,40.57s8.8,40.56,31.76,40.56c17.6,0,29.47-8.23,31.38-20.67h-24.88v-26.41ZM292.57,526.22c.38,5.74.96,25.83,5.74,30.81h-35.21c-3.06-4.59-3.64-17.99-4.02-21.81-.96-13.78-3.25-27.94-19.9-27.94h-26.98v49.75h-35.59v-136.62h69.65c24.11,0,47.84,10.91,47.84,38.46,0,14.73-7.08,28.7-21.43,34.25v.38c14.54,3.44,18.75,19.71,19.9,32.72ZM258.51,463.65c0-10.14-8.04-14.73-17.99-14.73h-28.32v30.81h29.85c10.72,0,16.46-5.74,16.46-16.07ZM350.36,500.39h66.97v-27.55h-66.97v-23.92h73.29v-28.51h-108.88v136.62h110.79v-30.62h-75.2v-26.02ZM497.51,475.89l-27.17-55.49h-40.37l49.75,85.72v50.9h35.59v-50.9l49.75-85.72h-40.37l-27.17,55.49ZM692.3,514.54c0,32.53-23.92,42.48-53.19,42.48h-65.63v-136.62h63.91c23.54-.38,49.37,5.74,49.37,34.25,0,12.25-7.27,22.2-17.99,27.55,14.54,4.21,23.54,16.84,23.54,32.34ZM609.07,474.17h27.55c6.12,0,14.54-3.25,14.54-13.01s-7.08-13.2-14.54-13.2h-27.55v26.21ZM656.71,513.21c0-12.05-8.42-16.07-19.13-16.07h-28.51v31.38h28.51c11.29,0,19.13-4.02,19.13-15.31ZM841.17,488.71c0,39.61-24.3,71.18-67.35,71.18s-67.35-31.57-67.35-71.18,24.3-71.18,67.35-71.18,67.35,31.57,67.35,71.18ZM805.58,488.71c0-20.28-8.8-40.57-31.76-40.57s-31.76,20.28-31.76,40.57,8.8,40.56,31.76,40.56,31.76-20.28,31.76-40.56ZM936.28,485.27l44.2-64.87h-40.57l-24.3,42.48-22.96-42.48h-41.9l44.58,64.87-48.6,71.75h40.95l27.94-45.54,25.64,45.54h43.24l-48.22-71.75Z"/>
</svg>